<?xml version="1.0" encoding="UTF-8"?>
<svg xmlns="http://www.w3.org/2000/svg" viewBox="0 0 1251.13 1356.82">
  <g id="Layer_1" data-name="Layer 1">
    <text transform="translate(237.09 1201.74)" style="fill: #0a0015; font-family: TruenoExBd, Trueno; font-size: 180px;"><tspan x="0" y="0">KEYLOR</tspan></text>
    <text transform="translate(249.58 1201.74)" style="fill: #29333f; font-family: TruenoExBd, Trueno; font-size: 180px;"><tspan x="0" y="0">KEYLOR</tspan></text>
  </g>
  <g id="Layer_2" data-name="Layer 2">
    <g>
      <path d="m533.82,436.17c37.09,29.58,71.46,30.75,73.01,30.79,1.55-.04,35.92-1.21,72.98-30.79,50.66-40.4,83.51-115.23,95.09-216.41,9.16-80.41-2.34-139.31-34.2-175.02C705.29,5.1,650.56,0,606.83,0s-98.46,5.1-133.86,44.74c-31.89,35.71-43.39,94.6-34.2,175.02,11.54,101.18,44.43,176.02,95.05,216.41Z" style="fill: #29333f;"/>
      <path d="m200.14,836.41c2.45,5.65,22.52,47.29,87.03,50.11l-35.27-271.1c-53.17,62.51-70.56,136.72-51.76,220.99Z" style="fill: #29333f;"/>
      <path d="m961.72,615.42l-35.27,271.1c64.3-2.76,84.55-44.29,87.03-50.11,18.84-84.27,1.41-158.49-51.76-220.99Z" style="fill: #29333f;"/>
      <path d="m948.84,554.22H264.78l4.65,35.85.14,1,39.6,304.54,8.58,65.95h578.12l8.58-65.95,39.6-304.51,4.79-36.89Zm-342.01,261.36c-31.79,0-57.68-25.86-57.68-57.68s25.9-57.68,57.68-57.68,57.72,25.86,57.72,57.68-25.9,57.68-57.72,57.68Z" style="fill: #29333f;"/>
      <path d="m676.98,463.58c-36.61,23.32-67.53,24.04-70.05,24.04h-.21c-2.51,0-33.44-.72-70.05-24.04-19.08,4.1-103.08,23.97-183.01,69.98h506.32c-79.86-45.98-163.86-65.85-183.01-69.98Z" style="fill: #29333f;"/>
      <rect x="318.75" y="982.23" width="576.13" height="33.68" style="fill: #29333f;"/>
    </g>
  </g>
</svg>