<?xml version="1.0" standalone="no"?>
<!DOCTYPE svg PUBLIC "-//W3C//DTD SVG 20010904//EN"
 "http://www.w3.org/TR/2001/REC-SVG-20010904/DTD/svg10.dtd">
<svg version="1.0" xmlns="http://www.w3.org/2000/svg"
 width="600.000000pt" height="600.000000pt" viewBox="0 0 600.000000 600.000000"
 preserveAspectRatio="xMidYMid meet">

<g transform="translate(0.000000,600.000000) scale(0.100000,-0.100000)"
fill="#000000" stroke="none">
<path d="M2781 5990 c-413 -35 -783 -139 -1141 -320 -295 -150 -504 -304 -755
-555 -263 -263 -413 -471 -570 -790 -215 -436 -308 -839 -308 -1325 0 -491 94
-892 313 -1335 155 -314 313 -531 579 -795 251 -249 467 -404 776 -555 439
-215 838 -308 1325 -308 490 0 889 93 1335 313 306 150 528 311 781 564 253
253 414 475 564 781 220 446 313 845 313 1335 0 490 -93 889 -313 1335 -150
306 -311 528 -564 781 -253 253 -475 414 -781 564 -331 163 -622 251 -975 295
-155 19 -441 26 -579 15z m-74 -427 c34 -59 61 -108 60 -109 -1 -1 -96 -55
-212 -119 l-210 -117 -285 -69 c-157 -39 -292 -72 -300 -74 -24 -8 18 22 306
222 150 103 271 189 269 191 -5 5 -101 -19 -195 -49 -320 -103 -618 -315 -830
-591 l-72 -93 -171 -42 c-95 -23 -173 -40 -175 -39 -6 6 135 162 230 255 379
369 856 617 1378 716 69 13 130 24 135 24 6 1 38 -47 72 -106z m1141 -12 c302
-100 554 -235 822 -442 115 -88 341 -312 434 -429 293 -370 478 -788 556
-1253 35 -208 42 -210 -175 47 -104 123 -191 223 -192 222 -1 -1 -31 -188 -68
-416 -36 -228 -68 -419 -69 -425 -2 -5 -74 134 -161 310 l-156 320 -435 68
c-240 38 -437 67 -439 65 -3 -2 11 -35 31 -74 75 -149 231 -257 411 -282 l47
-7 -237 -208 c-130 -114 -240 -207 -245 -207 -6 0 -112 144 -237 320 -124 176
-234 329 -244 341 l-17 22 -57 -38 c-36 -24 -54 -42 -49 -50 4 -6 117 -184
251 -394 185 -289 248 -380 260 -376 62 19 355 85 359 80 8 -8 -26 -110 -64
-194 -74 -162 -249 -381 -402 -502 l-42 -34 15 -200 c8 -110 15 -207 15 -216
0 -9 -127 -171 -283 -360 l-283 -344 -252 -3 c-139 -1 -252 0 -252 4 0 7 -402
1528 -405 1532 -2 2 -722 72 -748 72 -4 0 -64 115 -134 255 l-127 254 21 93
c69 307 242 549 528 744 l81 55 259 -16 c216 -13 262 -18 270 -32 88 -141 136
-187 231 -223 99 -36 218 -51 469 -57 l241 -6 52 134 c29 74 52 137 52 140 0
4 -53 9 -117 13 -65 4 -142 9 -170 12 l-53 6 0 84 c0 80 1 84 23 84 46 1 428
37 430 41 8 10 36 93 34 96 -2 2 -89 39 -192 82 l-189 79 -78 -114 c-43 -63
-114 -166 -157 -229 l-79 -115 -22 72 c-57 189 -139 280 -263 295 l-51 6 19
-29 c10 -16 49 -71 86 -122 l68 -94 -61 -73 -61 -73 -39 30 c-21 17 -38 34
-38 38 0 4 27 15 60 25 33 10 60 22 60 26 0 7 -218 249 -224 249 -1 0 -27 -7
-57 -16 -108 -32 -189 -83 -286 -181 l-92 -92 -96 29 c-53 16 -98 30 -100 32
-3 3 90 257 97 263 1 2 54 -8 117 -22 80 -18 115 -22 120 -14 4 6 16 54 26
107 l19 97 84 39 c176 81 310 113 528 124 104 6 124 10 124 23 0 9 11 99 25
201 13 101 23 186 22 187 -2 1 -65 -72 -141 -163 l-138 -164 -56 49 c-32 27
-74 67 -94 88 l-37 38 265 153 265 153 140 -81 140 -81 32 22 c153 107 255
248 298 417 10 41 19 95 19 119 0 23 2 43 5 43 3 0 72 -22 153 -49z m-1518
-875 l0 -154 -146 37 c-80 20 -145 40 -145 44 0 7 277 223 289 226 1 1 2 -68
2 -153z m-1802 -2082 l179 -332 61 -418 c33 -231 59 -421 57 -423 -2 -2 -38
48 -79 110 -242 370 -381 766 -426 1218 -5 57 -10 135 -10 175 l1 71 18 -35
c11 -19 100 -184 199 -366z m3643 -916 c-15 -39 -213 -493 -217 -497 -4 -4
-115 39 -128 50 -9 8 59 278 75 294 13 13 262 173 271 174 4 1 4 -9 -1 -21z"/>
<path d="M3803 4340 l-72 -40 54 -93 c31 -50 81 -135 112 -188 l56 -96 66 15
c36 8 67 16 69 17 4 4 -201 425 -207 425 -3 0 -38 -18 -78 -40z"/>
</g>
</svg>
